# xmcd
#
# Track frame offsets: 
#        150
#        20931
#        39063
#        54862
#        75244
#        92402
#        110756
#        126204
#        143114
#        165034
#        181070
#        201145
#        226202
#        246622
#        265032
#        281814
#        298206
#        322938
#
# Disc length: 4609 seconds
#
# Revision: 3
# Processed by: cddbd v1.5.2PL0 Copyright (c) Steve Scherf et al.
# Submitted via: ExactAudioCopy v0.99pb5
#
DISCID=ef11ff12
DTITLE=Various Artist - Легендарные Песни 90-95 (выпуск 03)
DYEAR=2004
DGENRE=Pop
TTITLE0=Божья Коровка - Гранитный Камушек
TTITLE1=Твой День - Хуанхэ
TTITLE2=Шериф - Не Уходи
TTITLE3=Крис Кельми - Ночное Рандеву
TTITLE4=Светлана Владимирская - Мальчик Мой
TTITLE5=Комбинация - Американ Бой
TTITLE6=Игорь Селиверстов - Санта-Лючия
TTITLE7=Дмитрий Маликов - Нет, Ты Не Для Меня
TTITLE8=Технология - Странные Танцы
TTITLE9=Владимир Маркин - Сиреневый Туман
TTITLE10=Александр Добрынин - Розовые Розы
TTITLE11=Сергей Васюта - На Белом Покрывале Января
TTITLE12=Алексей Глызин - Зимний Сад
TTITLE13=Мираж - Я Жду Тебя
TTITLE14=Ван Моо - Народное Техно
TTITLE15=Лимонадный Джо - Стой, Кто Идет
TTITLE16=Татьяна Буланова - Не Плачь
TTITLE17=Маленький Принц - Прощай
EXTD=
EXTT0=
EXTT1=
EXTT2=
EXTT3=
EXTT4=
EXTT5=
EXTT6=
EXTT7=
EXTT8=
EXTT9=
EXTT10=
EXTT11=
EXTT12=
EXTT13=
EXTT14=
EXTT15=
EXTT16=
EXTT17=
PLAYORDER=
